<svg version="1.1" viewBox="0.0 0.0 343.59055118110234 359.8083989501312" fill="none" stroke="none" stroke-linecap="square" stroke-miterlimit="10" xmlns:xlink="http://www.w3.org/1999/xlink" xmlns="http://www.w3.org/2000/svg"><clipPath id="p.0"><path d="m0 0l343.59055 0l0 359.8084l-343.59055 0l0 -359.8084z" clip-rule="nonzero"/></clipPath><g clip-path="url(#p.0)"><path fill="#FFF" fill-opacity="0.0" d="m0 0l343.59055 0l0 359.8084l-343.59055 0z" fill-rule="evenodd"/><path fill="#FFF" fill-opacity="0.0" d="m0.70866144 1.4317585l343.59058 0l0 356.9449l-343.59058 0z" fill-rule="evenodd"/><path fill="#FFF" d="m138.76147 269.28363q0 -5.5 2.75 -8.578125q2.75 -3.09375 6.328125 -3.09375q3.578125 0 6.328125 2.59375q2.75 2.578125 2.421875 7.90625q-1.671875 33.671875 -18.171875 54.171875q-15.828125 19.65625 -39.65625 19.65625q-45.000004 0 -58.17188 -67.328125q-5.0 -24.828125 -5.0 -58.578125q0 -33.75 4.15625 -60.15625q4.171875 -26.421875 12.671875 -45.921883q18.171879 -41.671875 51.67188 -41.671875q26.0 0 38.5 20.5q13.171875 21.828125 13.171875 71.32813q0 5.5 -2.5 8.25q-2.5 2.75 -6.0 2.75q-7.671875 0 -7.671875 -9.65625q0 -61.671883 -19.671875 -73.50001q-7.0 -4.171875 -16.328125 -4.171875q-9.328125 0 -16.75 5.25q-7.421875 5.25 -13.171875 14.5q-5.75 9.25 -9.921879 21.84375q-4.15625 12.578133 -6.828125 27.078133q-5.328125 29.328125 -5.328125 57.90625q0 28.578125 1.828125 45.828125q1.84375 17.25 5.171875 29.5q3.328125 12.25 7.906254 20.0q4.59375 7.75 10.09375 12.25q9.328125 7.84375 23.828125 7.84375q16.171875 0 26.5 -13.171875q12.171875 -15.171875 11.84375 -43.328125zm111.98723 -72.34375l6.6718597 -1.328125q25.171875 0.328125 39.328125 12.25q14.171875 11.921875 14.171875 33.921875q0 26.828125 -16.0 49.65625q-21.5 30.84375 -60.499985 43.0q-24.0 7.34375 -30.671875 2.84375q-4.0 -2.671875 -4.0 -9.5l1.671875 -133.67188l0 -18.171875q0 -23.828125 -0.75 -38.984375q-0.75 -15.171883 -1.25 -25.328133q-0.5 -10.171875 -0.921875 -18.59375q-0.40625 -8.421875 0.671875 -10.671875q1.078125 -2.25 2.921875 -3.40625q4.15625 -2.84375 23.40625 -6.5q19.25 -3.671875 29.75 -3.671875q54.499985 0 54.499985 46.0q0 37.328133 -39.328125 68.00001q-9.171875 7.15625 -19.67186 14.15625zm-34.328125 124.671875q13.828125 -0.5 26.328125 -6.171875q14.17186 -6.65625 22.82811 -13.234375q8.671875 -6.59375 15.515625 -15.265625q15.0 -19.0 15.0 -43.328125q0 -17.171875 -13.5 -26.328125q-12.171875 -8.171875 -30.67186 -8.171875q-16.0 0 -26.671875 3.671875q-6.328125 2.15625 -10.0 3.828125q0 3.828125 0.171875 8.171875q0 11.828125 0.078125 25.828125q0.09375 14.0 0.25 28.0q0.34375 30.171875 0.671875 43.0zm-1.171875 -120.5q22.84375 -4.671875 48.499985 -27.328125q18.34375 -16.171875 26.34375 -36.0q4.0 -10.328133 4.0 -20.656258q0 -10.34375 -3.25 -16.921875q-3.25 -6.59375 -8.75 -10.75q-10.5 -7.5 -28.843735 -7.5q-20.828125 0 -37.15625 7.5q0 2.15625 -0.171875 5.65625q-0.171875 6.0 -0.328125 18.171875q-0.34375 24.328133 -0.34375 53.828133l0 34.0z" fill-rule="nonzero"/></g></svg>