<svg version="1.1" viewBox="0.0 0.0 205.00524934383202 307.5511811023622" fill="none" stroke="none" stroke-linecap="square" stroke-miterlimit="10" xmlns:xlink="http://www.w3.org/1999/xlink" xmlns="http://www.w3.org/2000/svg"><clipPath id="p.0"><path d="m0 0l205.00525 0l0 307.55118l-205.00525 0l0 -307.55118z" clip-rule="nonzero"/></clipPath><g clip-path="url(#p.0)"><path fill="#000000" fill-opacity="0.0" d="m0 0l205.00525 0l0 307.55118l-205.00525 0z" fill-rule="evenodd"/><path fill="#000000" fill-opacity="0.0" d="m0 0.06413753l193.88977 -0.062992126l0 316.81888l-193.88977 0.06298828z" fill-rule="evenodd"/><path fill="#000000" d="m55.54687 107.40547q0 -3.21875 1.84375 -5.2662277q1.84375 -2.063095 4.40625 -2.0639267q2.5625038 -8.31604E-4 4.500004 1.8266602q1.953125 1.8274918 1.75 5.1869354q-0.703125 14.031479 -7.703129 22.736877q-7.015625 8.721024 -17.65625 8.724487q-19.859373 0.006454468 -25.437496 -28.522987q-2.000001 -9.9524765 -2.000001 -23.389977q0 -13.4375 1.671876 -24.031796q1.6718731 -10.5942955 5.140623 -18.548546q7.8125 -17.940039 22.703123 -17.944878q11.703125 -0.0038013458 17.40625 9.338097q5.546879 9.201321 5.546879 29.29507q0 3.234375 -1.75 5.156822q-1.75 1.9068146 -4.328129 1.9076538q-5.765625 0.001876831 -5.765625 -6.529373q0 -22.531254 -6.34375 -26.341694q-2.078125 -1.2336998 -4.90625 -1.2327805q-2.8125 9.1552734E-4 -5.125 1.642292q-2.3125 1.6257515 -4.328121 4.876404q-2.015625 3.2350311 -3.562502 7.9074097q-1.53125 4.656746 -2.546875 10.141453q-2.03125 11.203785 -2.03125 22.172535q0 10.96875 0.703125 17.515396q0.703125 6.546646 1.921875 11.061882q1.21875 4.4996033 2.781252 7.155342q1.5625 2.6401215 3.359375 4.108284q2.8906212 2.4209366 7.546871 2.419426q4.96875 -0.0016174316 8.171875 -4.096405q4.140625 -5.1732254 4.03125 -15.204437z" fill-rule="nonzero"/><path fill="#000000" d="m81.19816 106.162766q4.640625 -9.329636 11.921875 -9.332001q6.5625 -0.0021362305 8.859375 7.7002487q0.78125 2.7184906 0.78125 6.6716156l0 8.437508q0 9.375 0.40625 13.952988q0.109375 1.6718445 -0.90625 2.56279q-1.015625 0.8753357 -2.171875 0.87571716q-1.140625 3.6621094E-4 -1.96875 -0.78060913q-0.828125 -0.7809906 -0.515625 -3.6404572q0.40625 -4.4376373 0.40625 -9.687637q0 -5.265625 -0.109375 -7.4218445q-0.09375 -2.1718445 -0.171875 -5.343689q-0.078125 -3.171852 -1.28125 -5.827713q-1.1875 -2.655861 -3.5625 -2.6550903q-2.359375 7.6293945E-4 -4.21875 1.2513733q-1.84375 1.2505951 -3.359375 3.172966q-3.0625 4.125992 -3.84375 9.266869q0.203125 12.453064 0.671875 18.234161q0.109375 1.6718445 -0.78125 2.5627594q-0.890625 0.8752899 -2.296875 0.8757477q-2.65625 8.544922E-4 -2.65625 -3.2335205l0.734375 -57.79712q0 -11.09375 -0.578125 -27.702934q-0.09375 -1.6718445 0.921875 -2.4690514q1.015625 -0.81282806 2.15625 -0.8131981q1.140625 -3.7384033E-4 1.953125 0.81186295q0.8125 0.7966118 0.734375 2.8278885q-0.078125 2.031273 -0.1875 5.906311q-0.109375 3.8750343 -0.234375 8.781326q-0.125 4.890667 -0.234375 10.5156975q-0.109375 5.625038 -0.21875 11.515701q-0.09375 5.8750305 -0.140625 11.765671q-0.0625 4.640648 -0.109375 9.015663zm54.99613 8.357132q0.09375 -9.0625305 -3.796875 -12.389397q-1.5625 -1.4057388 -3.8125 -1.4050064q-2.2343826 7.247925E-4 -3.7031326 0.8449478q-1.453125 0.828598 -2.578125 2.2352142q-1.109375 1.4066086 -1.875 3.2037354q-0.75 1.7971191 -1.21875 3.6566467q-0.46875 1.9845276 -0.671875 3.9064713l7.140625 0.31018066q6.9687576 -0.0022659302 10.515633 -0.36279297zm-17.859383 4.5370483q0.09375 7.1874695 2.59375 10.983536q2.71875 4.061615 7.6562576 4.060013q4.53125 -0.0014648438 6.625 -4.4709015q1.296875 -2.9222946 3.21875 -2.9229202q0.890625 -2.89917E-4 1.484375 0.57764435q0.59375 0.56230164 0.546875 1.9998169q-0.046875 1.4375153 -1.015625 3.1097107q-0.96875 1.6565552 -2.6875 2.9539948q-3.734375 2.9230957 -9.000008 2.9248047q-5.671875 0.0018310547 -9.796875 -4.840576q-4.3125 -5.107971 -4.3125 -12.139221q0 -7.03125 1.21875 -11.422272q1.21875 -4.4066467 3.25 -7.313553q3.96875 -5.8919144 9.906258 -5.8938446q7.59375 -0.0024719238 10.671875 5.9809036q2.125 4.1711884 2.28125 12.233635q0.0625 2.2968597 -0.71875 3.0783615q-0.78125 0.78150177 -3.1875 0.7822876l-18.734383 0.31858063zm52.439186 -60.017036l0.671875 -4.0470963q0 -4.640625 -3.0625 -5.7333794q-0.890625 -0.31221008 -2.328125 -0.31174088q-1.421875 4.6157837E-4 -2.78125 0.93840027q-1.359375 0.9379425 -2.296875 3.5476227q-2.078125 6.0788 -1.765625 31.813072q0.109375 6.7655945 0.109375 13.1249695l8.375 -0.2683487q3.5 -0.0011367798 3.5 2.6082382q0 1.609375 -1.78125 2.3443298q-0.625 0.203331 -1.96875 0.11001587q-4.171875 -0.21739197 -5.625 -0.21692657q-1.40625 4.5776367E-4 -2.5 0.063316345l0 9.3125q0 15.109375 0.359375 18.124886q0.359375 3.015503 0.15625 3.9530792q-0.203125 0.93756104 -0.671875 1.5627136q-0.9375 1.3596802 -2.109375 1.3600616q-1.171875 3.8146973E-4 -1.9375 -0.9368744q-0.75 -0.93725586 -0.671875 -2.6560364q0.078125 -1.7187653 0.09375 -4.8125305q0.03125 -3.1093826 0 -7.4531174q-0.015625 -4.34375 -0.015625 -9.765625q-0.046875 -3.9999847 -0.109375 -8.374962q-1.1875 0.09413147 -2.8125 0.15716553q-1.71875 0.094306946 -2.5 -0.7335663q-0.78125 -0.82787323 -0.78125 -1.7653732q0 -0.9375 0.34375 -1.4844818q0.34375 -0.54698944 0.859375 -0.9221573q0.984375 -0.67219543 2.140625 -0.6725693l2.75 0.20223236q-0.09375 -11.2968445 -0.09375 -21.49997q0 -11.15625 0.59375 -16.765823q0.59375 -5.6251907 2.0 -9.1725235q2.765625 -6.7196503 10.0 -6.722q6.765625 -0.0021972656 9.0625 7.606434q0.78125 2.4997444 0.78125 5.4372444q0 2.9375 -0.9375 4.094055q-0.9375 1.1409302 -2.1875 1.1413345q-2.859375 9.3078613E-4 -2.859375 -3.1865692z" fill-rule="nonzero"/><path fill="#000000" d="m44.07812 238.11234l-0.140625 -2.2499542q11.109375 0.13700867 17.5 5.5255585q6.406254 5.38855 6.406254 15.26355q0 11.359375 -6.750004 20.970947q-8.921875 12.831024 -25.078121 17.867523q-10.640627 3.2690735 -14.328127 0.7702637q-2.796875 -1.8428345 -2.796875 -6.0147095l0.65625 -52.218964l0 -7.078125q0 -9.25 -0.296875 -15.124908q-0.296875 -5.8905334 -0.5 -9.859207q-0.1875 -3.968689 -0.359375 -7.609268q-0.171875 -3.640564 0.5625 -5.187683q0.75 -1.5627441 2.109375 -2.4225464q2.0625 -1.4069214 9.984375 -2.9095001q7.921873 -1.5182037 12.296873 -1.5196228q24.046879 -0.0078125 24.046879 20.726562q0 15.921875 -16.421879 28.739716q-3.65625 2.8761902 -6.890625 2.330368zm-13.218748 46.863678q2.062502 -0.07879639 6.437498 -2.0646057q5.25 -2.454834 8.375 -4.830841q3.140625 -2.3760376 5.59375 -5.501831q5.265625 -6.657959 5.265625 -15.204834q0 -5.2499847 -4.0625 -7.9986725q-4.046875 -2.7174377 -10.4375 -2.7153625q-5.78125 0.001876831 -9.515621 1.2843475q-2.343752 0.81326294 -2.484377 0.37580872q0.453125 -0.047027588 0.515625 1.6560822q0 4.65625 0.03125 10.125q0.03125 5.4530945 0.09375 10.9218445q0.140625 11.765564 0.1875 13.953064zm-0.375 -47.593643q4.875002 -1.0015869 14.343748 -9.364029q6.6875 -5.877182 9.546875 -13.003113q1.375 -3.5316925 1.375 -6.9848175q0 -3.46875 -0.984375 -5.4528046q-0.984375 -1.9840546 -2.578125 -3.1866608q-3.359375 -2.4051666 -9.625 -2.403122q-7.531246 0.0024414062 -13.203123 1.0199127q1.453125 0.07765198 1.375 1.4683075q-0.0625 2.2968903 -0.125 7.0156555q-0.125 9.500046 -0.125 21.000046l0 9.890625z" fill-rule="nonzero"/><path fill="#000000" d="m90.99769 261.9877q-1.71875 -1.2494202 -4.03125 -1.2486877q-2.3125 7.6293945E-4 -4.21875 1.2826233q-1.90625 1.2662354 -3.203125 3.5635376q-2.65625 4.57901 -2.65625 12.57901q0 7.984375 2.546875 11.796051q2.5625 3.7960205 6.828125 3.7946472q4.6875 -0.0015258789 7.5 -5.3618164q2.5 -4.797699 2.5 -11.782074q0 -10.71875 -5.265625 -14.623291zm-4.78125 36.189056q-2.96875 0.06347656 -5.546875 -1.2169495q-2.578125 -1.2803955 -4.453125 -3.9829102q-4.1249924 -5.733032 -4.1249924 -16.295532q0 -9.484375 4.4374924 -14.95459q4.15625 -5.204468 11.03125 -5.2066956q5.78125 -0.0018920898 9.578125 4.996887q3.90625 5.3112183 3.90625 14.576843q0 10.3125 -4.53125 16.45462q-4.046875 5.5325623 -10.296875 5.6283264zm41.913048 -36.20111q-1.7187576 -1.2494507 -4.0312576 -1.2486877q-2.3125 7.6293945E-4 -4.21875 1.2826233q-1.90625 1.2662354 -3.203125 3.5635376q-2.65625 4.5789795 -2.65625 12.5789795q0 7.984375 2.546875 11.796051q2.5625 3.796051 6.828125 3.7946777q4.6875076 -0.0015258789 7.5000076 -5.3618164q2.5 -4.797699 2.5 -11.782074q0 -10.71875 -5.265625 -14.623291zm-4.7812576 36.189056q-2.96875 0.06347656 -5.546875 -1.2169495q-2.578125 -1.2803955 -4.453125 -3.9829407q-4.125 -5.733032 -4.125 -16.295532q0 -9.484375 4.4375 -14.954559q4.15625 -5.204468 11.03125 -5.2066956q5.7812576 -0.0018920898 9.578133 4.996887q3.90625 5.3112183 3.90625 14.576843q0 10.3125 -4.53125 16.45459q-4.046875 5.5325623 -10.296883 5.628357zm50.772408 -40.313385q1.03125 -3.3569336E-4 1.8125 0.78067017q0.78125 0.78100586 0.78125 1.9997559q0 1.21875 -1.171875 2.9222412q-1.171875 1.6878967 -2.859375 3.594696q-1.6875 1.8911743 -3.5625 3.8136597q-1.609375 1.6723938 -2.921875 3.125946q2.1875 6.671173 7.609375 14.372528q1.5 2.0932617 2.328125 3.530487q0.84375 1.4216003 0.84375 2.3903503q0 0.953125 -0.9375 1.8909302q-0.9375 0.9378052 -1.921875 0.93814087q-2.296875 7.324219E-4 -3.15625 -2.108368q-0.859375 -2.1091003 -2.15625 -4.843048q-1.296875 -2.7339478 -2.65625 -5.3897705q-2.234375 -4.3742676 -3.859375 -7.123749q-1.40625 1.3442078 -3.0625 2.860382q-2.34375 2.141388 -3.59375 3.3292847q-0.3125 0.31262207 -0.625 0.5783386l0 0.109375q0 1.296875 0.046875 2.8437195q0.046875 1.53125 0.09375 3.0624695q0.0625 1.53125 0.078125 3.015625q0.03125 1.4843445 -0.90625 2.3752747q-0.9375 0.8909302 -2.0 0.8912964q-1.0625 3.3569336E-4 -1.90625 -0.78063965q-0.828125 -0.78097534 -0.734375 -3.2497559q0.109375 -2.484436 0.1875 -6.546936q0.078125 -4.0625305 0.078125 -8.7031555q0.109375 -13.7969055 0.109375 -20.28128q0 -6.4843903 -0.0625 -13.5625q-0.046875 -7.0781097 -0.140625 -13.640579q-0.3125 -14.734268 -1.046875 -21.671524q-0.15625 -1.6562042 0.796875 -2.4690094q0.96875 -0.81282043 2.1875 -0.81321716q1.234375 -3.9672852E-4 2.25 0.8117676q1.015625 0.81217957 0.9375 2.7965698q-0.078125 1.9687805 -0.109375 5.046921q-0.015625 3.0625 -0.015625 6.703125q0.09375 10.9374695 0.09375 16.171844q0 5.234375 -0.03125 10.937515q-0.015625 5.703125 -0.0625 11.4844055q-0.0625 11.828125 0.09375 20.203094q5.3125 -4.9392395 11.5625 -12.956909q3.015625 -3.8603516 3.859375 -5.626251q1.40625 -2.8129578 3.75 -2.8137207z" fill-rule="nonzero"/></g></svg>