<svg version="1.1" viewBox="0.0 0.0 960.0 720.0" fill="none" stroke="none" stroke-linecap="square" stroke-miterlimit="10" xmlns:xlink="http://www.w3.org/1999/xlink" xmlns="http://www.w3.org/2000/svg"><clipPath id="p.0"><path d="m0 0l960.0 0l0 720.0l-960.0 0l0 -720.0z" clip-rule="nonzero"/></clipPath><g clip-path="url(#p.0)"><path fill="#000000" fill-opacity="0.0" d="m0 0l960.0 0l0 720.0l-960.0 0z" fill-rule="evenodd"/><path fill="#000000" fill-opacity="0.0" d="m212.4357 142.5748l226.67715 0l0 309.38583l-226.67715 0z" fill-rule="evenodd"/><path fill="#000000" d="m266.1232 246.00168q0 -3.09375 1.765625 -5.0625q1.765625 -1.984375 4.21875 -1.984375q2.46875 0 4.34375 1.765625q1.875 1.75 1.671875 4.984375q-0.671875 13.46875 -7.40625 21.828125q-6.734375 8.359375 -16.9375 8.359375q-19.0625 0 -24.421875 -27.390625q-1.921875 -9.5625 -1.921875 -22.453125q0 -12.890625 1.59375 -23.0625q1.609375 -10.1875 4.9375 -17.8125q7.515625 -17.21875 21.8125 -17.21875q11.234375 0 16.703125 8.96875q5.328125 8.828125 5.328125 28.125q0 3.09375 -1.6875 4.9375q-1.671875 1.84375 -4.15625 1.84375q-5.53125 0 -5.53125 -6.28125q0 -21.625 -6.078125 -25.28125q-2.0 -1.1875 -4.71875 -1.1875q-2.703125 0 -4.921875 1.578125q-2.21875 1.5625 -4.15625 4.671875q-1.921875 3.109375 -3.40625 7.59375q-1.484375 4.46875 -2.453125 9.734375q-1.953125 10.75 -1.953125 21.28125q0 10.53125 0.671875 16.828125q0.671875 6.28125 1.84375 10.609375q1.171875 4.3125 2.671875 6.875q1.515625 2.546875 3.21875 3.9375q2.78125 2.328125 7.25 2.328125q4.765625 0 7.859375 -3.9375q3.96875 -4.953125 3.859375 -14.578125z" fill-rule="nonzero"/><path fill="#000000" d="m288.29507 251.28293q3.46875 -6.984375 8.9375 -6.984375q4.921875 0 6.640625 5.78125q0.59375 2.03125 0.59375 5.0l0 6.328125q0 7.03125 0.3125 10.46875q0.078125 1.25 -0.6875 1.921875q-0.765625 0.65625 -1.625 0.65625q-0.859375 0 -1.484375 -0.578125q-0.625 -0.59375 -0.390625 -2.75q0.3125 -3.3125 0.3125 -7.25q0 -3.953125 -0.078125 -5.578125q-0.078125 -1.625 -0.140625 -4.0q-0.046875 -2.390625 -0.953125 -4.375q-0.890625 -2.0 -2.671875 -2.0q-1.78125 0 -3.171875 0.9375q-1.375 0.9375 -2.515625 2.390625q-2.296875 3.078125 -2.890625 6.953125q0.15625 9.328125 0.515625 13.671875q0.078125 1.25 -0.59375 1.921875q-0.65625 0.65625 -1.71875 0.65625q-1.984375 0 -1.984375 -2.421875l0.546875 -43.359375q0 -8.328125 -0.4375 -20.78125q-0.078125 -1.25 0.6875 -1.859375q0.765625 -0.609375 1.625 -0.609375q0.859375 0 1.453125 0.609375q0.609375 0.609375 0.546875 2.140625q-0.046875 1.515625 -0.125 4.421875q-0.078125 2.90625 -0.1875 6.578125q-0.09375 3.671875 -0.171875 7.890625q-0.078125 4.21875 -0.15625 8.640625q-0.078125 4.40625 -0.109375 8.828125q-0.046875 3.46875 -0.078125 6.75zm41.25 6.296875q0.078125 -6.796875 -2.859375 -9.296875q-1.171875 -1.0625 -2.859375 -1.0625q-1.671875 0 -2.765625 0.625q-1.09375 0.625 -1.9375 1.6875q-0.828125 1.046875 -1.40625 2.40625q-0.5625 1.34375 -0.90625 2.75q-0.359375 1.484375 -0.515625 2.921875l5.359375 0.234375q5.234375 0 7.890625 -0.265625zm-13.40625 3.390625q0.078125 5.390625 1.953125 8.25q2.03125 3.046875 5.75 3.046875q3.390625 0 4.953125 -3.359375q0.984375 -2.1875 2.421875 -2.1875q0.671875 0 1.109375 0.4375q0.453125 0.421875 0.40625 1.5q-0.03125 1.0625 -0.75 2.3125q-0.71875 1.25 -2.015625 2.234375q-2.8125 2.1875 -6.75 2.1875q-4.265625 0 -7.34375 -3.640625q-3.25 -3.828125 -3.25 -9.09375q0 -5.28125 0.921875 -8.578125q0.921875 -3.296875 2.4375 -5.484375q2.96875 -4.421875 7.421875 -4.421875q5.703125 0 8.015625 4.5q1.59375 3.125 1.71875 9.171875q0.03125 1.71875 -0.5625 2.3125q-0.578125 0.578125 -2.375 0.578125l-14.0625 0.234375zm39.335938 -45.0l0.515625 -3.046875q0 -3.46875 -2.3125 -4.296875q-0.65625 -0.234375 -1.734375 -0.234375q-1.078125 0 -2.09375 0.703125q-1.015625 0.703125 -1.71875 2.65625q-1.5625 4.578125 -1.328125 23.875q0.078125 5.078125 0.078125 9.84375l6.296875 -0.203125q2.609375 0 2.609375 1.953125q0 1.21875 -1.328125 1.765625q-0.46875 0.15625 -1.484375 0.078125q-3.125 -0.15625 -4.21875 -0.15625q-1.046875 0 -1.875 0.03125l0 7.0q0 11.328125 0.265625 13.59375q0.28125 2.265625 0.125 2.96875q-0.15625 0.703125 -0.5 1.171875q-0.703125 1.015625 -1.59375 1.015625q-0.875 0 -1.4375 -0.703125q-0.5625 -0.703125 -0.515625 -1.984375q0.0625 -1.296875 0.078125 -3.625q0.03125 -2.328125 0 -5.578125q-0.015625 -3.265625 -0.015625 -7.328125q-0.03125 -3.015625 -0.078125 -6.296875q-0.890625 0.078125 -2.109375 0.125q-1.28125 0.078125 -1.875 -0.546875q-0.578125 -0.625 -0.578125 -1.328125q0 -0.703125 0.25 -1.109375q0.25 -0.421875 0.640625 -0.6875q0.75 -0.515625 1.609375 -0.515625l2.0625 0.15625q-0.078125 -8.46875 -0.078125 -16.125q0 -8.359375 0.453125 -12.578125q0.453125 -4.21875 1.5 -6.875q2.078125 -5.046875 7.5 -5.046875q5.078125 0 6.796875 5.703125q0.59375 1.875 0.59375 4.09375q0 2.203125 -0.703125 3.0625q-0.703125 0.859375 -1.640625 0.859375q-2.15625 0 -2.15625 -2.390625z" fill-rule="nonzero"/><path fill="#000000" d="m255.1232 371.86105l-0.15625 -2.15625q10.671875 0.140625 16.8125 5.3125q6.15625 5.171875 6.15625 14.65625q0 10.90625 -6.484375 20.140625q-8.578125 12.3125 -24.078125 17.140625q-10.21875 3.125 -13.765625 0.734375q-2.671875 -1.78125 -2.671875 -5.78125l0.625 -50.125l0 -6.796875q0 -8.875 -0.28125 -14.53125q-0.28125 -5.65625 -0.46875 -9.46875q-0.1875 -3.8125 -0.359375 -7.296875q-0.171875 -3.5 0.546875 -4.984375q0.71875 -1.484375 2.015625 -2.3125q1.984375 -1.34375 9.59375 -2.796875q7.609375 -1.453125 11.796875 -1.453125q23.09375 0 23.09375 19.90625q0 15.296875 -15.765625 27.59375q-3.515625 2.75 -6.609375 2.21875zm-12.703125 45.0q1.984375 -0.078125 6.1875 -1.96875q5.03125 -2.375 8.03125 -4.65625q3.015625 -2.28125 5.375 -5.265625q5.046875 -6.40625 5.046875 -14.609375q0 -5.03125 -3.890625 -7.671875q-3.890625 -2.609375 -10.015625 -2.609375q-5.5625 0 -9.140625 1.234375q-2.25 0.765625 -2.375 0.359375q0.421875 -0.046875 0.484375 1.578125q0 4.46875 0.03125 9.71875q0.03125 5.234375 0.09375 10.484375q0.125 11.296875 0.171875 13.40625zm-0.359375 -45.6875q4.671875 -0.953125 13.78125 -8.984375q6.390625 -5.65625 9.15625 -12.484375q1.3125 -3.40625 1.3125 -6.71875q0 -3.3125 -0.953125 -5.21875q-0.9375 -1.921875 -2.46875 -3.078125q-3.203125 -2.296875 -9.234375 -2.296875q-7.234375 0 -12.671875 0.96875q1.390625 0.0625 1.328125 1.40625q-0.0625 2.21875 -0.125 6.75q-0.125 9.109375 -0.125 20.15625l0 9.5z" fill-rule="nonzero"/><path fill="#000000" d="m295.32632 402.15793q-1.28125 -0.9375 -3.03125 -0.9375q-1.734375 0 -3.15625 0.96875q-1.421875 0.953125 -2.40625 2.671875q-1.984375 3.4375 -1.984375 9.4375q0 5.984375 1.90625 8.84375q1.921875 2.84375 5.125 2.84375q3.515625 0 5.625 -4.015625q1.875 -3.59375 1.875 -8.828125q0 -8.046875 -3.953125 -10.984375zm-3.59375 27.15625q-2.21875 0.046875 -4.15625 -0.90625q-1.9375 -0.96875 -3.34375 -3.0q-3.078125 -4.296875 -3.078125 -12.234375q0 -7.109375 3.3125 -11.203125q3.125 -3.90625 8.28125 -3.90625q4.34375 0 7.1875 3.75q2.9375 3.984375 2.9375 10.9375q0 7.734375 -3.40625 12.34375q-3.046875 4.140625 -7.734375 4.21875zm31.445312 -27.15625q-1.28125 -0.9375 -3.03125 -0.9375q-1.734375 0 -3.15625 0.96875q-1.421875 0.953125 -2.40625 2.671875q-1.984375 3.4375 -1.984375 9.4375q0 5.984375 1.90625 8.84375q1.921875 2.84375 5.125 2.84375q3.515625 0 5.625 -4.015625q1.875 -3.59375 1.875 -8.828125q0 -8.046875 -3.953125 -10.984375zm-3.59375 27.15625q-2.21875 0.046875 -4.15625 -0.90625q-1.9375 -0.96875 -3.34375 -3.0q-3.078125 -4.296875 -3.078125 -12.234375q0 -7.109375 3.3125 -11.203125q3.125 -3.90625 8.28125 -3.90625q4.34375 0 7.1875 3.75q2.9375 3.984375 2.9375 10.9375q0 7.734375 -3.40625 12.34375q-3.046875 4.140625 -7.734375 4.21875zm38.085938 -30.234375q0.78125 0 1.359375 0.59375q0.59375 0.578125 0.59375 1.5q0 0.90625 -0.875 2.1875q-0.875 1.265625 -2.15625 2.6875q-1.265625 1.421875 -2.671875 2.875q-1.203125 1.25 -2.1875 2.34375q1.640625 5.0 5.703125 10.78125q1.140625 1.5625 1.765625 2.640625q0.625 1.0625 0.625 1.796875q0 0.71875 -0.703125 1.421875q-0.703125 0.703125 -1.453125 0.703125q-1.71875 0 -2.359375 -1.578125q-0.640625 -1.59375 -1.625 -3.640625q-0.96875 -2.046875 -1.984375 -4.046875q-1.6875 -3.28125 -2.890625 -5.34375q-1.0625 1.015625 -2.3125 2.140625q-1.75 1.609375 -2.6875 2.5q-0.234375 0.234375 -0.46875 0.4375l0 0.078125q0 0.96875 0.03125 2.125q0.046875 1.15625 0.078125 2.3125q0.046875 1.140625 0.0625 2.265625q0.015625 1.109375 -0.6875 1.78125q-0.703125 0.65625 -1.5 0.65625q-0.796875 0 -1.421875 -0.578125q-0.625 -0.59375 -0.546875 -2.453125q0.078125 -1.859375 0.125 -4.90625q0.0625 -3.046875 0.0625 -6.515625q0.078125 -10.359375 0.078125 -15.21875q0 -4.859375 -0.046875 -10.171875q-0.03125 -5.3125 -0.109375 -10.234375q-0.234375 -11.0625 -0.78125 -16.25q-0.109375 -1.25 0.609375 -1.859375q0.71875 -0.609375 1.640625 -0.609375q0.921875 0 1.671875 0.609375q0.765625 0.609375 0.703125 2.09375q-0.046875 1.484375 -0.078125 3.796875q-0.015625 2.296875 -0.015625 5.03125q0.078125 8.203125 0.078125 12.125q0 3.921875 -0.015625 8.203125q-0.015625 4.28125 -0.0625 8.609375q-0.03125 8.875 0.078125 15.15625q3.984375 -3.703125 8.671875 -9.71875q2.265625 -2.890625 2.890625 -4.21875q1.0625 -2.109375 2.8125 -2.109375z" fill-rule="nonzero"/></g></svg>